<?xml version="1.0" standalone="no"?>
<!DOCTYPE svg PUBLIC "-//W3C//DTD SVG 20010904//EN"
 "http://www.w3.org/TR/2001/REC-SVG-20010904/DTD/svg10.dtd">
<svg version="1.0" xmlns="http://www.w3.org/2000/svg"
 width="5849.000000pt" height="3762.000000pt" viewBox="0 0 5849.000000 3762.000000"
 preserveAspectRatio="xMidYMid meet">

<g transform="translate(0.000000,3762.000000) scale(0.100000,-0.100000)"
fill="#000000" stroke="none">
<path d="M33905 35655 c-5 -2 -29 -9 -52 -15 -24 -6 -43 -15 -43 -20 0 -6 20
-15 45 -22 25 -7 45 -15 45 -18 0 -3 -14 -14 -31 -24 -53 -31 -169 -147 -230
-229 -139 -187 -258 -464 -353 -827 -41 -157 -213 -925 -250 -1115 -22 -115
-51 -307 -71 -461 l-7 -52 -96 -22 c-549 -124 -1083 -365 -1468 -660 -313
-241 -405 -314 -491 -392 -427 -388 -707 -890 -763 -1370 -15 -127 -8 -402 13
-496 l14 -62 -41 -11 c-202 -51 -400 -158 -575 -310 -124 -107 -273 -294 -340
-426 -17 -35 -106 -114 -115 -101 -4 5 11 439 29 858 9 206 23 596 30 865 12
415 18 523 41 705 43 344 39 624 -12 782 -14 45 -81 118 -107 118 -5 0 -21 9
-36 20 -47 33 -171 68 -280 79 -245 26 -580 -30 -1139 -188 -114 -33 -292 -82
-397 -111 -104 -28 -503 -139 -885 -245 -849 -236 -1143 -315 -1640 -440 -952
-239 -1723 -462 -2385 -690 -452 -156 -818 -256 -1575 -430 -570 -132 -930
-224 -1310 -335 -190 -56 -765 -223 -1277 -371 -513 -148 -1092 -316 -1287
-374 l-354 -105 -77 45 c-551 326 -1280 505 -2057 505 -144 0 -188 3 -188 13
0 54 210 897 304 1222 260 897 558 1416 889 1547 58 23 107 68 107 98 0 38
-32 56 -124 69 -80 12 -131 11 -223 -5 -18 -4 -33 -10 -33 -15 0 -5 24 -20 52
-32 l53 -23 -61 -33 c-208 -110 -404 -344 -573 -682 -110 -219 -194 -440 -379
-994 -203 -607 -222 -670 -292 -950 l-57 -230 -39 -7 c-22 -3 -93 -14 -159
-23 -366 -49 -791 -164 -1140 -310 -201 -83 -483 -234 -615 -329 -25 -18 -104
-68 -175 -111 -774 -465 -1266 -1169 -1313 -1877 l-7 -102 -225 -79 c-507
-176 -1046 -341 -1475 -452 -659 -169 -979 -283 -1262 -451 -331 -195 -582
-502 -691 -844 -83 -260 -91 -489 -27 -760 14 -58 36 -195 50 -305 13 -110 33
-265 45 -345 11 -80 23 -186 27 -236 l6 -91 -99 -68 c-630 -436 -1189 -874
-1714 -1343 -195 -175 -770 -744 -931 -922 -348 -387 -665 -786 -920 -1160
-1095 -1604 -1536 -3292 -1304 -4995 83 -607 274 -1271 535 -1860 1171 -2642
3989 -5034 8120 -6892 3915 -1761 8828 -2938 14095 -3377 2975 -249 6057 -262
9045 -40 5996 445 11495 1826 15710 3945 1774 892 3201 1840 4435 2948 209
188 782 763 957 961 813 919 1367 1793 1743 2750 272 691 420 1362 466 2115
21 336 22 372 11 510 -6 77 -18 232 -27 344 -155 2040 -1328 4062 -3395 5852
-1277 1105 -2889 2127 -4740 3003 -129 61 -240 115 -246 118 -6 4 -14 53 -18
110 -4 57 -16 202 -27 323 -16 169 -21 312 -23 620 -3 434 -11 518 -62 687
-34 110 -66 150 -152 189 -109 49 -174 62 -312 62 -264 -1 -547 -77 -1095
-293 -137 -54 -446 -175 -685 -268 -239 -94 -472 -184 -517 -202 l-82 -33
-328 111 c-1221 413 -2505 776 -3823 1082 -124 29 -265 62 -314 74 l-89 21
-32 110 c-39 135 -73 221 -137 347 -120 236 -288 385 -558 495 -159 65 -339
107 -710 169 -309 51 -350 60 -530 119 -107 35 -238 75 -290 89 -130 34 -690
145 -1295 257 l-500 92 -68 63 c-123 113 -255 188 -447 251 -63 21 -117 39
-119 40 -2 1 19 55 47 120 92 216 153 416 204 673 32 160 32 437 0 583 -47
215 -142 436 -269 627 -242 365 -577 657 -984 859 -306 152 -635 247 -1034
298 -245 31 -809 24 -1049 -13 l-39 -6 7 83 c15 179 102 778 157 1079 145 791
365 1283 638 1429 33 17 67 42 76 54 21 30 19 74 -4 87 -18 9 -203 13 -226 5z
m-5205 -3613 c0 -4 -19 -17 -42 -29 -24 -12 -81 -47 -127 -80 l-84 -59 2 -65
c6 -166 -117 -353 -359 -548 -53 -43 -192 -142 -310 -221 -473 -317 -668 -486
-1358 -1179 -254 -255 -461 -465 -460 -466 2 -1 73 52 158 117 257 198 582
435 820 598 730 499 1268 909 1633 1244 l120 110 -6 -49 c-28 -210 -59 -500
-78 -715 l-22 -255 -46 -70 c-55 -83 -144 -181 -182 -201 -48 -24 -93 -17
-187 30 -113 56 -133 60 -228 41 -162 -33 -345 -145 -494 -302 -190 -198 -332
-410 -575 -853 -175 -321 -251 -443 -565 -920 -157 -239 -313 -478 -345 -530
-186 -301 -370 -450 -555 -450 -109 0 -163 26 -330 155 -94 73 -235 146 -320
166 -76 17 -212 15 -290 -6 -152 -39 -300 -135 -455 -296 -130 -134 -211 -243
-445 -596 -297 -447 -387 -600 -700 -1198 -375 -717 -554 -1015 -810 -1347
-133 -172 -222 -261 -284 -281 -99 -34 -158 -18 -350 92 -201 114 -287 136
-418 107 -101 -22 -183 -74 -276 -171 -104 -109 -188 -230 -311 -453 -119
-215 -175 -295 -268 -383 -140 -130 -307 -215 -635 -323 -236 -78 -334 -121
-434 -191 -96 -68 -246 -234 -339 -374 -103 -156 -130 -228 -215 -591 -137
-582 -266 -935 -437 -1200 -177 -272 -450 -382 -681 -273 -58 27 -95 61 -307
285 -82 86 -113 112 -172 141 -96 47 -165 56 -226 29 -74 -33 -157 -95 -233
-173 -129 -135 -189 -228 -393 -613 -67 -126 -141 -259 -165 -296 -58 -90
-140 -169 -212 -205 -54 -27 -68 -30 -159 -29 -115 0 -159 14 -292 91 -182
106 -370 283 -775 728 -313 345 -452 476 -569 536 -118 60 -339 85 -486 55
-211 -43 -401 -161 -605 -375 -115 -121 -207 -240 -368 -476 -269 -395 -442
-596 -669 -777 -218 -174 -375 -249 -556 -264 -383 -33 -798 305 -1090 887
-88 175 -136 309 -225 624 -157 562 -240 798 -367 1046 -165 326 -368 522
-617 598 -171 53 -244 27 -670 -239 -421 -262 -529 -313 -666 -314 -73 -1 -93
3 -141 26 -69 35 -153 121 -202 209 -50 90 -110 278 -137 429 -28 159 -37 478
-21 752 16 275 15 581 -4 714 -8 60 -29 161 -46 224 -27 100 -32 140 -39 305
-5 105 -14 253 -19 330 -29 384 0 633 98 839 120 253 321 434 641 577 208 93
943 335 1410 464 437 121 655 195 1004 339 154 64 283 116 288 116 4 0 8 -9 8
-19 0 -10 13 -71 29 -135 68 -269 209 -513 437 -754 74 -80 86 -96 76 -110
-221 -311 -259 -701 -103 -1062 109 -253 291 -450 540 -585 69 -37 78 -46 119
-115 24 -41 71 -108 103 -147 l60 -72 -98 35 c-715 259 -1671 575 -2192 723
-257 74 -318 88 -649 157 -705 146 -995 250 -1277 458 -17 13 -45 0 -45 -20 0
-27 189 -206 285 -270 179 -119 382 -210 780 -349 310 -109 730 -266 1227
-459 1118 -435 2699 -1011 3498 -1274 656 -216 1566 -482 1651 -482 74 0 142
127 91 173 -32 29 -1018 443 -1652 694 -146 58 -266 106 -267 107 -1 0 96 1
215 2 235 1 407 17 621 59 311 61 628 171 868 301 l82 44 88 -25 c146 -43 242
-55 427 -55 336 0 659 73 951 215 232 113 403 259 483 412 44 84 50 111 30
131 -9 9 10 33 78 104 238 247 345 457 375 737 26 238 -13 451 -111 607 -12
20 -8 29 47 105 235 328 453 832 518 1204 24 131 24 382 1 520 -67 402 -273
812 -584 1163 -41 46 -72 86 -69 88 3 3 121 32 263 64 1276 287 2086 500 2809
737 378 123 902 311 1800 643 1143 423 1604 587 2245 801 549 183 844 273
1455 444 242 68 545 153 673 189 804 227 1311 343 1812 415 240 35 580 54 580
33z m6485 -606 c104 -44 172 -168 145 -267 -16 -60 -62 -102 -180 -163 -225
-117 -351 -124 -434 -25 -25 30 -28 39 -24 90 6 79 57 182 108 216 22 14 48
40 59 58 56 95 211 138 326 91z m-3872 -175 c335 -243 754 -388 1247 -432 164
-14 529 -6 681 15 313 44 581 124 834 247 98 48 115 53 174 53 184 -1 315
-164 247 -306 -24 -50 -142 -165 -243 -237 -305 -218 -707 -323 -1173 -308
-658 22 -1297 281 -1705 692 -80 80 -169 192 -202 252 -16 29 -16 33 0 57 10
14 27 26 38 26 11 0 57 -27 102 -59z m-2612 -1496 c9 -94 11 -940 3 -998 l-7
-46 -366 -279 c-400 -305 -616 -464 -846 -622 -770 -531 -1208 -861 -1780
-1340 -460 -385 -1019 -885 -1610 -1440 -293 -275 -325 -306 -1115 -1065 -349
-336 -718 -689 -820 -785 -241 -229 -417 -398 -620 -595 -1104 -1078 -1686
-1590 -2405 -2119 -524 -385 -801 -633 -988 -884 -166 -223 -259 -435 -288
-650 -24 -182 13 -452 70 -510 18 -17 33 -51 45 -97 49 -185 143 -318 247
-349 29 -9 65 -16 80 -16 25 0 28 -4 38 -63 19 -107 24 -352 11 -552 -19 -323
-23 -656 -11 -985 20 -530 44 -854 112 -1487 13 -122 26 -99 -159 -287 -159
-161 -290 -280 -496 -450 -401 -331 -654 -515 -1011 -734 -82 -51 -161 -100
-174 -110 -21 -14 -19 -9 11 33 50 70 74 120 105 222 25 82 27 100 27 283 0
153 -5 242 -26 410 -15 118 -29 249 -33 290 -3 41 -25 298 -50 570 -51 571
-63 750 -69 1020 -11 565 51 961 264 1700 149 515 200 707 216 809 9 58 25
123 36 145 55 106 81 218 101 433 18 184 32 214 183 377 l114 124 47 -15 c74
-22 224 -19 318 6 84 23 188 72 264 123 86 59 193 177 238 263 70 137 93 216
162 561 41 204 65 291 127 475 137 405 229 613 352 799 168 252 362 403 652
505 239 84 491 228 653 373 122 109 211 214 314 371 187 286 288 390 390 407
51 8 75 -3 235 -103 76 -46 170 -99 210 -116 68 -30 80 -32 193 -32 115 0 122
1 180 32 86 44 153 108 255 244 237 315 419 635 700 1229 384 813 677 1315
1054 1805 177 231 294 337 439 398 58 24 90 31 170 35 169 8 302 -38 517 -181
153 -100 243 -132 351 -123 162 13 332 73 452 160 203 145 405 424 1029 1426
146 234 298 481 338 550 234 397 424 653 571 766 122 94 209 110 314 57 66
-34 156 -63 192 -63 13 0 51 18 84 41 110 74 269 131 359 126 l45 -2 6 -70z
m2016 -69 c99 -21 183 -51 278 -96 118 -57 114 -49 67 -111 -46 -62 -72 -111
-98 -189 -39 -113 -14 -397 34 -388 12 2 19 18 25 53 15 95 49 200 78 247 93
144 250 208 484 195 272 -15 548 -121 858 -330 55 -37 58 -40 42 -57 -21 -23
-5 -34 29 -19 31 15 45 6 401 -261 360 -269 556 -378 852 -476 205 -68 466
-114 642 -114 66 0 70 1 100 35 30 35 40 76 23 102 -4 7 -75 35 -157 64 -353
121 -661 283 -983 516 -146 106 -457 364 -456 378 1 15 161 82 251 106 61 17
108 21 213 22 310 0 565 -97 1175 -448 480 -276 618 -344 855 -426 194 -67
325 -90 550 -96 184 -4 197 -3 228 16 18 12 40 37 49 56 28 58 13 73 -138 139
-185 81 -476 231 -860 444 -179 99 -354 194 -388 211 l-62 32 23 18 c95 74
277 136 548 188 145 28 476 25 625 -5 388 -78 643 -219 783 -435 65 -101 119
-223 143 -323 18 -75 20 -109 16 -219 -6 -154 -26 -234 -97 -383 -104 -217
-218 -366 -609 -796 -135 -148 -137 -149 -236 -197 -350 -166 -785 -240 -1235
-210 -288 20 -442 54 -695 156 -427 171 -779 426 -919 665 -42 71 -76 166 -76
209 0 16 -4 32 -8 35 -51 31 -73 -226 -32 -374 80 -283 337 -560 730 -786 l84
-48 -55 -17 c-212 -65 -696 -156 -984 -185 -229 -23 -634 -24 -842 -1 -375 42
-722 126 -1001 243 -476 200 -761 531 -838 978 -22 127 -15 340 15 456 28 105
86 232 145 315 55 76 159 173 238 221 54 33 72 54 47 54 -21 0 -186 -70 -253
-107 -269 -150 -456 -422 -511 -747 -18 -108 -19 -303 -1 -411 8 -44 12 -81
11 -83 -1 -2 -35 32 -75 75 -181 196 -314 464 -371 750 -27 137 -37 391 -19
501 17 105 70 249 127 346 63 107 238 284 346 350 140 87 310 150 472 176 85
13 326 5 412 -14z m7199 -706 c1057 -131 1242 -164 1467 -258 78 -33 232 -97
342 -142 379 -156 580 -274 746 -440 334 -333 457 -815 428 -1680 -8 -250 -15
-298 -59 -409 -49 -125 -173 -259 -317 -344 -97 -56 -304 -141 -417 -169 -160
-41 -301 -12 -555 112 -177 87 -234 106 -358 120 -231 27 -563 -49 -962 -219
-361 -155 -470 -229 -811 -553 -237 -226 -302 -279 -605 -500 -289 -210 -342
-252 -680 -526 -254 -207 -447 -357 -520 -405 -40 -26 -41 -26 -95 -12 -97 26
-351 73 -495 92 -198 25 -861 26 -1074 0 -79 -9 -147 -15 -149 -12 -13 12 85
743 151 1135 l23 135 419 160 c231 89 589 226 795 304 1220 465 1936 751 2683
1071 86 37 152 72 158 82 14 25 2 58 -21 58 -10 0 -106 -34 -212 -76 -839
-329 -1682 -645 -2873 -1077 -888 -322 -900 -326 -903 -312 -2 8 13 82 32 167
94 404 221 739 361 955 67 103 186 223 270 273 58 34 60 35 214 41 803 35
1536 392 1737 846 28 62 29 80 10 102 -13 15 -5 27 76 111 272 287 416 533
474 814 31 147 30 469 -2 617 l-6 25 124 -13 c68 -8 339 -41 604 -73z m-25736
-129 c0 -5 -22 -42 -50 -82 -96 -140 -142 -299 -142 -494 -1 -253 72 -447 226
-601 87 -86 169 -134 334 -191 239 -83 465 -116 927 -133 599 -21 791 -42
1013 -110 82 -25 104 -50 84 -94 -8 -19 -26 -27 -104 -44 -547 -124 -1057
-168 -1455 -127 -648 68 -1111 343 -1243 738 -97 288 -40 606 161 904 92 136
249 283 249 234z m16905 -631 c91 -439 400 -841 792 -1031 64 -32 72 -39 107
-101 172 -312 478 -552 926 -727 388 -152 759 -216 1250 -216 385 1 644 31
1005 120 311 77 535 158 813 297 l183 91 87 -27 c48 -14 119 -33 159 -42 l72
-16 -75 -60 c-259 -209 -465 -641 -619 -1303 -20 -88 -40 -171 -44 -184 -6
-20 -35 -33 -201 -93 -2054 -737 -3075 -1116 -4240 -1575 -828 -326 -1315
-510 -2785 -1051 -997 -367 -1352 -499 -2035 -757 -450 -169 -1121 -414 -1645
-600 -372 -132 -610 -226 -995 -392 -768 -333 -1137 -464 -1497 -534 -41 -7
-63 -16 -63 -25 0 -18 14 -17 152 2 367 51 684 143 1473 429 332 121 976 338
1895 640 514 169 1774 601 2750 943 980 344 1892 680 2668 983 620 243 969
384 2812 1136 776 317 1651 666 1656 660 3 -3 -15 -92 -40 -198 -82 -356 -132
-622 -169 -913 l-12 -98 -210 -53 c-644 -163 -1206 -434 -1640 -790 -55 -45
-150 -120 -212 -166 -210 -158 -403 -346 -574 -559 -147 -183 -313 -475 -394
-693 -40 -111 -90 -298 -100 -381 l-7 -55 -182 -117 c-451 -292 -729 -419
-1020 -469 -113 -19 -344 -19 -461 0 -129 21 -236 53 -435 130 -521 201 -837
278 -1145 278 -294 0 -455 -59 -727 -267 -230 -175 -301 -224 -417 -284 -248
-128 -468 -188 -891 -241 -368 -47 -694 -50 -1270 -16 -356 22 -904 30 -1080
16 -544 -43 -933 -175 -1290 -437 -151 -110 -244 -221 -382 -454 -93 -157
-166 -250 -258 -328 -243 -207 -578 -340 -964 -382 -144 -15 -552 -29 -936
-32 -324 -2 -337 -2 -402 20 -143 48 -212 142 -228 309 -4 50 -13 100 -19 111
-16 30 -14 81 9 192 53 261 177 498 389 745 108 125 284 290 530 497 119 100
329 277 466 392 882 742 1217 1039 2130 1896 662 620 831 774 1335 1215 319
279 546 481 1180 1050 1130 1014 1562 1386 2190 1887 485 386 864 664 1360
996 375 252 435 296 885 656 l360 288 6 -114 c3 -62 14 -151 24 -198z m-13810
-824 c19 -8 55 -18 80 -22 109 -16 153 -156 72 -232 -75 -71 -197 -69 -293 4
-67 51 -84 132 -41 194 42 63 113 84 182 56z m26220 -108 c1143 -267 2379
-614 3410 -955 165 -55 224 -78 210 -83 -11 -5 -139 -54 -285 -110 -295 -114
-390 -149 -860 -320 -539 -196 -951 -355 -1353 -521 l-217 -91 -300 101 c-344
115 -713 232 -1010 321 -113 33 -211 62 -218 65 -8 3 4 29 37 77 99 148 185
349 225 528 20 85 38 283 31 334 -3 23 -12 176 -20 341 -8 165 -18 322 -21
349 l-6 49 38 -7 c22 -4 174 -39 339 -78z m6478 -454 c3 -4 -20 -23 -51 -44
-32 -20 -84 -61 -117 -92 l-59 -55 -1 -109 c0 -95 -4 -117 -27 -172 -76 -177
-239 -357 -583 -642 -401 -332 -643 -591 -1190 -1270 -104 -129 -241 -298
-304 -375 -63 -77 -119 -147 -125 -155 -12 -16 35 26 325 295 272 253 356 328
584 520 714 605 1257 1119 1558 1474 l37 45 0 -520 0 -519 -44 -75 c-58 -99
-118 -178 -153 -201 -41 -28 -103 -24 -185 11 -94 40 -132 45 -206 26 -126
-32 -237 -100 -365 -225 -197 -192 -368 -477 -567 -946 -159 -374 -197 -459
-302 -669 -60 -120 -169 -332 -242 -470 -74 -138 -177 -339 -231 -446 -113
-226 -173 -318 -265 -410 -91 -92 -177 -134 -282 -139 -99 -4 -146 12 -285 96
-197 120 -299 156 -448 156 -338 0 -609 -243 -922 -828 -293 -548 -405 -787
-643 -1380 -340 -848 -471 -1130 -678 -1465 -185 -299 -250 -360 -379 -360
-60 1 -108 17 -323 108 -132 56 -210 69 -301 48 -92 -21 -176 -66 -243 -131
-101 -96 -228 -314 -331 -565 -101 -247 -163 -347 -291 -471 -122 -118 -292
-220 -549 -329 -145 -62 -230 -106 -313 -163 -148 -102 -297 -291 -406 -517
-69 -141 -92 -241 -135 -590 -107 -858 -292 -1347 -572 -1512 -82 -49 -187
-73 -283 -65 -113 10 -185 52 -354 206 -175 160 -261 209 -382 218 -75 5 -75
5 -140 -37 -189 -123 -319 -330 -505 -800 -101 -254 -161 -381 -218 -455 -138
-183 -328 -212 -584 -90 -203 96 -352 210 -793 604 -372 334 -526 452 -656
505 -81 33 -208 50 -313 43 -401 -29 -705 -309 -1061 -977 -192 -361 -365
-612 -554 -808 -251 -259 -442 -362 -675 -362 -253 0 -493 122 -748 381 -117
119 -183 201 -292 365 -117 176 -185 317 -345 720 -202 510 -297 707 -451 939
-209 313 -463 495 -715 512 -145 10 -221 -30 -570 -301 -294 -228 -413 -310
-525 -363 -53 -25 -72 -28 -155 -28 -79 0 -103 4 -142 23 -137 67 -248 228
-337 485 -70 204 -103 391 -120 697 -6 102 -16 266 -21 365 -19 316 -51 487
-139 732 -29 82 -52 164 -56 203 -3 36 -26 185 -50 332 -58 350 -71 504 -56
653 38 373 221 647 586 875 94 58 304 163 500 248 88 38 255 113 370 165 116
53 361 155 545 227 184 72 396 158 471 191 134 59 501 251 818 428 90 50 166
91 170 90 3 0 30 -33 58 -72 29 -40 85 -107 125 -151 52 -56 69 -82 62 -91
-220 -317 -294 -524 -294 -826 0 -537 350 -1044 869 -1256 58 -23 111 -43 116
-43 6 0 26 -24 45 -52 53 -79 196 -224 282 -289 326 -242 869 -389 1439 -389
746 0 1588 263 2162 674 l82 59 110 -19 c160 -28 425 -25 600 5 690 120 1288
473 1486 876 55 113 71 185 46 213 -14 16 -8 26 65 122 188 249 296 477 334
705 19 119 14 384 -11 505 -77 379 -291 610 -665 716 -52 15 -96 27 -97 28 -1
1 14 46 34 101 43 123 106 366 133 517 84 457 -20 915 -307 1346 -41 62 -73
115 -71 117 1 1 109 39 238 83 974 334 1663 597 2306 883 350 155 691 318
2224 1069 1245 609 2001 953 2758 1254 526 209 1145 454 1282 506 738 283
1401 482 1775 534 195 27 200 28 208 20z m-35878 -923 c90 -18 211 -63 272
-100 l32 -20 -44 -66 c-55 -82 -79 -157 -79 -255 -1 -95 20 -182 42 -178 11 2
19 24 28 74 15 91 45 159 92 207 79 82 159 110 307 109 211 -1 422 -72 665
-224 114 -72 106 -64 90 -83 -18 -21 -4 -32 22 -16 24 15 11 23 308 -198 228
-169 315 -225 465 -297 201 -97 410 -154 646 -176 116 -11 129 -10 153 6 30
19 49 60 41 86 -3 11 -50 33 -136 64 -393 141 -664 302 -1037 615 l-114 95 38
19 c119 61 273 93 400 83 234 -19 426 -98 894 -366 411 -236 560 -306 765
-360 141 -37 239 -50 382 -50 l115 0 34 34 c38 38 43 65 17 88 -10 8 -63 34
-118 58 -150 64 -285 134 -613 314 -163 90 -323 176 -354 192 -53 26 -56 29
-42 45 40 45 244 114 438 149 412 74 905 -64 1088 -305 176 -231 206 -507 84
-769 -72 -156 -181 -303 -436 -585 -147 -163 -159 -174 -235 -210 -245 -119
-505 -173 -831 -173 -271 0 -408 20 -602 86 -301 102 -593 278 -751 453 -69
76 -136 199 -147 268 -12 83 -39 43 -50 -74 -13 -137 49 -309 163 -451 114
-144 234 -238 493 -388 31 -18 -449 -122 -735 -159 -211 -27 -667 -24 -862 5
-381 57 -705 164 -915 301 -94 61 -216 176 -274 257 -57 80 -119 210 -146 309
-17 65 -22 108 -22 235 -1 179 11 238 74 365 63 129 133 205 270 296 46 31 13
30 -66 -1 -272 -108 -457 -325 -520 -611 -19 -84 -22 -305 -6 -381 5 -27 6
-48 1 -48 -11 0 -111 120 -160 192 -189 277 -264 704 -173 977 64 193 205 358
397 465 71 40 218 91 298 105 95 16 258 12 354 -8z m28784 -492 c528 -155
1155 -359 1144 -370 -8 -8 -80 -42 -442 -206 -305 -138 -837 -342 -850 -326
-5 4 -18 118 -30 253 -12 135 -31 343 -42 463 -20 217 -20 247 2 247 6 0 104
-27 218 -61z m-1764 -4 c129 -21 241 -55 388 -119 184 -81 248 -97 402 -103
179 -7 286 15 489 102 18 8 18 2 11 -181 -4 -104 -11 -310 -14 -458 l-6 -269
-315 -109 c-457 -157 -731 -258 -1020 -375 -140 -57 -511 -208 -825 -335 -313
-126 -780 -315 -1037 -419 l-467 -189 -109 83 c-183 136 -399 261 -620 358
l-34 15 179 174 c231 226 434 400 952 816 674 540 774 616 973 738 384 235
729 324 1053 271z m10045 -815 c2959 -1481 5138 -3280 6332 -5230 1215 -1983
1395 -4098 522 -6138 -1173 -2742 -4261 -5246 -8754 -7099 -4374 -1804 -9800
-2891 -15560 -3118 -861 -34 -1203 -39 -2290 -39 -1241 0 -1886 15 -2955 69
-2919 149 -5768 523 -8435 1106 -1556 341 -3152 782 -4465 1234 -450 156 -460
159 -692 243 -3988 1450 -7080 3418 -8849 5632 -1059 1325 -1634 2692 -1735
4129 -15 219 -6 826 16 1021 112 1006 413 1897 953 2820 404 690 895 1318
1552 1984 557 564 1129 1053 1821 1556 106 77 194 139 195 137 2 -2 -8 -77
-21 -168 -63 -424 -69 -479 -69 -694 -1 -226 8 -296 60 -449 24 -73 24 -78 15
-223 -13 -184 -38 -662 -51 -973 -5 -129 -14 -548 -20 -930 -12 -786 -18 -935
-61 -1385 -40 -414 -49 -839 -25 -1075 35 -329 97 -739 162 -1055 60 -298 82
-374 134 -480 79 -162 178 -261 428 -428 292 -195 423 -237 984 -312 236 -31
406 -59 413 -67 1 -2 50 -97 108 -213 278 -550 632 -1062 1106 -1599 166 -188
626 -647 831 -828 713 -631 1524 -1204 2465 -1743 2991 -1712 7083 -2919
11595 -3419 1138 -127 2164 -199 3520 -248 463 -17 2248 -17 2725 0 921 32
1727 79 2448 143 205 18 233 18 285 5 242 -62 1030 -218 1447 -286 589 -97
769 -115 1145 -115 313 0 404 7 585 46 l90 19 75 -25 c145 -47 264 -56 421
-29 284 49 582 208 969 519 304 244 608 525 780 718 l75 85 324 82 c2082 524
3927 1193 5571 2021 981 493 1749 963 2535 1549 1960 1462 3102 3135 3334
4887 60 453 53 989 -20 1443 -203 1271 -888 2498 -2038 3649 l-214 214 -34
166 c-95 472 -134 835 -193 1781 -6 96 -20 299 -30 450 -17 234 -60 898 -60
921 0 8 234 -103 550 -261z m-956 11 c39 -198 87 -684 131 -1341 60 -878 97
-1168 225 -1742 74 -329 98 -477 106 -638 18 -343 -73 -608 -302 -880 -34 -41
-190 -201 -346 -355 -156 -155 -349 -353 -429 -440 -558 -611 -1077 -1297
-1636 -2160 -100 -153 -123 -200 -243 -475 -403 -931 -833 -1666 -1465 -2505
-601 -798 -1177 -1445 -3056 -3435 -526 -558 -751 -810 -992 -1112 -195 -245
-282 -368 -561 -797 -215 -329 -474 -626 -930 -1064 -254 -244 -389 -361 -631
-547 -88 -67 -171 -133 -186 -146 -14 -13 -28 -24 -31 -24 -3 0 10 29 28 64
55 102 76 200 77 351 1 150 -10 223 -65 465 -22 96 -59 279 -83 405 -24 127
-77 401 -119 610 -154 781 -191 1077 -190 1520 1 382 26 598 158 1316 65 355
87 499 105 679 5 52 18 120 29 150 30 81 44 204 41 369 -2 80 1 162 5 181 12
49 48 119 88 167 18 22 60 77 93 122 38 52 64 80 73 76 42 -16 154 -16 233 0
238 48 457 220 558 437 64 137 87 254 121 618 22 238 36 314 115 635 124 501
240 755 443 967 112 117 184 167 412 283 257 132 360 205 525 370 157 157 222
246 333 458 182 349 283 460 401 444 21 -2 114 -41 207 -85 229 -109 334 -132
459 -98 154 41 239 128 400 411 166 291 305 613 499 1157 337 948 576 1471
919 2010 201 316 372 438 612 438 138 0 243 -32 444 -136 203 -104 293 -115
471 -59 274 87 422 226 632 595 166 290 667 1287 840 1669 244 539 440 836
611 921 75 37 107 38 216 1 47 -16 109 -31 137 -34 51 -6 53 -5 120 48 86 69
188 123 283 151 86 25 108 22 115 -15z m-16476 -2468 c89 -67 115 -159 69
-249 -46 -91 -163 -229 -241 -286 -95 -69 -241 -7 -270 114 -7 32 9 105 35
163 22 47 116 165 132 165 6 0 32 20 57 44 25 25 59 52 75 61 38 20 108 14
143 -12z m-22662 -529 c77 -37 211 -171 287 -285 110 -166 206 -396 268 -643
40 -160 61 -262 115 -570 93 -534 163 -776 308 -1063 130 -260 346 -503 582
-655 133 -86 354 -173 524 -208 343 -70 709 54 1120 380 132 104 358 331 474
475 84 106 126 166 321 465 157 241 262 363 349 404 113 54 226 45 372 -29
125 -63 271 -183 494 -404 274 -273 387 -380 465 -442 253 -201 458 -289 669
-289 254 1 478 109 701 341 96 101 150 177 366 522 125 200 270 402 301 421 9
6 20 8 23 4 3 -3 21 -79 40 -169 19 -90 44 -188 56 -217 l22 -54 -33 -76 c-72
-171 -98 -305 -85 -452 10 -116 9 -141 -21 -320 -36 -219 -84 -424 -194 -835
-203 -759 -269 -1225 -315 -2235 -42 -929 -55 -1139 -81 -1278 -12 -70 -13
-109 -4 -251 24 -343 -30 -570 -165 -706 -116 -116 -281 -163 -499 -143 -109
10 -163 21 -461 96 -247 63 -386 94 -770 172 -639 129 -842 177 -1085 256
-233 75 -487 185 -619 269 -20 12 -52 26 -71 30 -458 94 -1126 260 -1880 465
-722 197 -1195 303 -2027 455 -491 89 -685 142 -898 245 -193 94 -297 180
-358 299 -79 153 -95 250 -107 661 -8 297 -12 338 -39 480 -72 376 -84 672
-52 1341 23 489 27 946 11 1359 -10 245 -61 1329 -76 1589 l-6 113 62 -42
c130 -88 254 -128 426 -137 294 -15 401 37 764 368 80 73 181 159 225 192 191
143 348 174 501 101z m25607 -23 c77 -47 116 -168 83 -255 -30 -78 -152 -183
-295 -255 -85 -43 -273 -105 -396 -130 -421 -85 -1073 -90 -1440 -11 -277 61
-521 179 -697 340 -75 68 -93 106 -77 166 11 38 57 74 97 74 13 0 77 -18 142
-40 231 -79 455 -111 771 -111 406 0 611 29 1059 149 305 82 426 102 595 98
106 -1 125 -5 158 -25z m14605 -831 c827 -934 1350 -1938 1537 -2955 59 -319
80 -545 80 -885 0 -800 -174 -1513 -555 -2285 -622 -1257 -1739 -2429 -3320
-3482 -1645 -1096 -3705 -2013 -6115 -2723 -367 -108 -1115 -312 -1115 -304 0
2 42 58 94 126 51 68 211 285 356 483 482 660 752 994 1256 1550 314 347 444
485 1169 1235 870 901 1198 1253 1575 1695 583 680 1030 1303 1390 1935 137
240 287 541 508 1015 280 600 351 748 461 955 256 479 502 835 802 1159 306
329 388 439 839 1121 146 222 239 350 311 434 273 313 367 442 419 577 56 146
63 194 56 399 -3 102 -8 199 -11 215 -6 27 0 24 60 -40 36 -38 128 -140 203
-225z m-18968 -227 c1 -120 51 -372 103 -514 l24 -67 -46 -22 c-508 -250
-1195 -546 -1730 -747 -417 -156 -602 -233 -793 -328 -465 -234 -725 -470
-900 -819 -104 -207 -151 -407 -151 -646 0 -172 19 -278 87 -476 24 -71 56
-187 71 -259 14 -71 49 -219 75 -328 72 -289 84 -379 84 -662 1 -132 -3 -397
-8 -590 -10 -388 -4 -487 41 -660 14 -55 43 -140 64 -190 l38 -90 16 -322 c20
-436 25 -386 -37 -412 -165 -70 -633 -254 -893 -351 -1065 -401 -1446 -557
-1932 -791 -287 -138 -490 -217 -868 -339 -567 -182 -812 -267 -1020 -355
-126 -53 -333 -138 -460 -189 -604 -244 -968 -324 -1230 -269 -48 9 -95 13
-116 9 -45 -8 -114 -67 -130 -110 -12 -32 -13 -33 -100 -44 -126 -17 -238 -52
-469 -148 -251 -104 -329 -127 -436 -128 -137 0 -219 54 -284 190 -69 144 -87
279 -160 1259 -78 1042 -100 1240 -235 2080 -143 891 -206 1325 -245 1695 -11
107 -22 211 -25 230 -3 19 -9 271 -14 560 -10 541 -20 694 -61 903 -21 108
-75 279 -111 349 -10 20 -19 39 -19 42 0 9 97 36 170 47 103 16 381 6 605 -22
258 -32 686 -32 857 -1 246 45 630 192 806 309 131 87 211 181 422 497 201
300 295 404 472 523 184 123 413 202 688 237 321 40 561 31 1340 -53 414 -45
716 -52 1065 -26 412 31 769 99 1105 211 188 63 315 128 440 226 208 163 273
209 342 244 107 54 203 75 338 76 215 1 389 -38 854 -191 485 -160 566 -176
844 -168 190 5 301 25 467 82 215 74 361 153 744 402 163 106 299 192 304 193
4 0 7 -21 7 -47z m6701 -414 c194 -19 360 -66 500 -141 92 -49 167 -112 237
-201 133 -167 192 -329 192 -527 -1 -290 -119 -542 -508 -1083 -132 -184 -140
-193 -220 -245 -179 -116 -443 -225 -675 -276 -246 -55 -579 -83 -770 -65
-348 33 -774 180 -1057 367 -47 31 -126 97 -176 147 -72 71 -98 105 -126 165
-20 41 -39 88 -42 103 -10 40 -29 28 -39 -24 -16 -89 15 -253 66 -354 119
-236 389 -453 752 -606 90 -38 90 -38 60 -49 -677 -262 -1146 -370 -1685 -387
-514 -16 -1034 81 -1338 249 -290 159 -484 408 -570 728 -22 83 -25 116 -25
255 0 133 3 173 21 240 46 169 155 341 276 436 67 53 59 71 -15 33 -457 -230
-660 -705 -524 -1227 13 -50 22 -93 21 -94 -1 -2 -31 21 -67 50 -283 234 -483
637 -515 1038 -21 273 95 555 312 758 211 197 476 301 769 301 61 0 147 -6
192 -14 79 -14 260 -70 275 -84 4 -4 -4 -26 -19 -47 -72 -106 -102 -286 -69
-414 25 -96 52 -152 70 -145 12 5 16 21 16 69 0 315 208 479 585 462 215 -9
405 -60 645 -171 l135 -63 -3 -32 c-4 -34 2 -35 38 -6 17 14 44 0 403 -207
330 -190 504 -265 759 -328 185 -45 350 -62 560 -58 123 2 190 7 205 16 44 25
69 107 40 131 -8 6 -57 20 -110 31 -480 98 -857 262 -1370 595 l-137 90 22 17
c51 39 222 120 295 139 172 44 366 35 608 -26 171 -43 319 -98 686 -253 543
-231 720 -288 989 -321 183 -23 510 -3 567 34 32 21 57 77 49 108 -7 28 -6 28
-241 102 -232 74 -1196 453 -1203 474 -5 14 105 89 193 131 181 86 428 161
590 179 115 12 257 13 376 0z m-27491 -5624 c151 -35 311 -74 355 -85 527
-137 703 -192 1400 -437 1148 -404 1430 -500 1920 -654 568 -178 1208 -351
1534 -414 410 -79 763 -101 1027 -66 53 8 63 6 128 -25 104 -49 176 -65 316
-71 145 -6 255 10 407 58 251 80 471 197 851 452 385 257 620 448 924 746 95
92 149 139 152 130 4 -14 92 -807 121 -1094 41 -417 76 -857 90 -1135 35 -716
122 -1094 317 -1377 155 -224 329 -274 668 -191 121 30 195 66 365 178 83 54
175 108 205 120 150 59 457 102 662 93 261 -12 330 7 1483 410 1340 468 1726
614 3145 1184 708 285 1731 686 1736 680 1 -1 7 -74 13 -162 7 -88 36 -441 66
-785 67 -776 73 -868 80 -1375 9 -604 27 -793 116 -1190 97 -437 283 -1075
364 -1251 65 -142 174 -269 309 -358 91 -60 342 -193 431 -227 166 -65 377
-94 760 -104 314 -9 408 -17 881 -75 930 -116 1231 -168 1919 -332 209 -50
395 -94 413 -98 19 -5 36 -10 38 -13 2 -2 -55 -7 -128 -10 -73 -4 -252 -13
-398 -21 -772 -43 -1221 -56 -2156 -63 -1106 -8 -1929 13 -3004 78 -319 19
-847 57 -1080 79 -58 5 -161 14 -230 20 -1107 98 -2331 262 -3470 466 -291 52
-358 65 -705 133 -976 194 -2020 449 -2928 716 -2223 654 -4140 1480 -5727
2468 -888 553 -1618 1123 -2266 1771 -387 387 -679 733 -961 1136 -138 197
-347 542 -442 728 l-22 43 23 -6 c13 -2 147 -34 298 -70z m20025 -55 c144 -70
322 -261 443 -473 115 -203 198 -425 337 -912 114 -396 148 -501 225 -680 191
-448 466 -764 823 -944 300 -152 638 -204 891 -138 358 95 753 411 1080 866
107 147 185 280 300 509 206 410 281 514 413 574 38 18 66 22 138 22 131 -1
234 -41 417 -164 96 -64 174 -125 542 -423 388 -315 705 -452 969 -417 213 28
409 136 577 318 112 121 177 227 370 610 180 356 262 497 290 497 10 0 28 -45
60 -150 26 -82 61 -180 78 -217 l32 -66 -29 -91 c-55 -170 -64 -339 -25 -487
31 -118 -2 -463 -110 -1154 -90 -579 -97 -662 -103 -1200 -5 -474 3 -715 48
-1465 11 -192 22 -492 24 -665 3 -276 6 -330 26 -440 29 -162 32 -392 6 -490
-45 -168 -131 -277 -267 -343 -154 -74 -347 -84 -660 -33 -272 44 -551 76
-1220 141 -655 64 -1033 143 -1372 289 -95 40 -121 47 -245 61 -535 61 -921
116 -1823 260 -808 129 -1298 187 -2020 240 -570 41 -823 91 -1079 211 -119
56 -191 111 -247 190 -102 143 -139 278 -189 695 -29 247 -44 323 -92 473 -98
310 -145 646 -178 1271 -39 733 -76 1048 -260 2245 -46 300 -91 597 -100 660
-8 63 -18 125 -20 136 -4 20 1 18 68 -16 135 -71 200 -85 387 -85 332 1 420
52 777 453 165 184 262 272 358 324 130 69 230 72 360 8z"/>
<path d="M22970 27383 c-55 -38 -736 -587 -992 -800 -1112 -925 -2024 -1791
-2786 -2646 -194 -217 -342 -394 -342 -406 0 -18 28 -12 92 20 83 42 145 89
307 233 76 66 209 182 297 257 143 122 291 256 684 619 178 164 367 328 920
800 705 601 995 857 1325 1165 234 218 605 587 621 617 50 96 -42 199 -126
141z"/>
<path d="M17478 22352 c-322 -243 -465 -328 -634 -377 -102 -29 -245 -34 -334
-10 -113 30 -119 10 -22 -71 85 -71 183 -119 275 -135 235 -40 578 122 861
404 176 176 207 239 149 299 -21 22 -36 28 -69 28 -40 0 -57 -11 -226 -138z"/>
<path d="M42774 21636 c-38 -17 -1001 -976 -1325 -1321 -918 -974 -1550 -1733
-2181 -2615 -228 -320 -234 -328 -220 -342 19 -19 131 60 237 167 95 95 265
274 474 499 52 55 228 252 391 436 353 398 345 389 950 1025 567 596 743 783
988 1055 334 370 767 887 800 956 21 44 9 96 -29 128 -35 29 -42 30 -85 12z"/>
<path d="M27547 17653 c-27 -26 62 -118 206 -211 198 -128 404 -199 1022 -352
264 -65 777 -199 1140 -299 1295 -353 2844 -743 3680 -925 708 -154 1600 -315
1649 -296 29 10 74 64 82 96 9 35 -3 72 -29 88 -43 28 -1166 366 -1862 560
-1349 376 -2791 722 -3756 900 -333 61 -432 76 -784 111 -509 52 -764 98
-1002 179 -97 33 -243 101 -295 137 -28 20 -41 23 -51 12z"/>
<path d="M37973 16207 c-12 -7 -95 -80 -185 -163 -270 -250 -361 -322 -493
-391 -152 -78 -290 -103 -447 -79 -75 11 -77 -5 -9 -57 233 -178 477 -164 785
46 160 110 359 318 459 480 31 51 37 68 33 97 -10 64 -85 99 -143 67z"/>
</g>
</svg>
